<svg width="512" height="512" viewBox="0 0 512 512" fill="none" xmlns="http://www.w3.org/2000/svg">
<path d="M474.123 209.81C485.648 175.233 481.692 137.387 463.285 105.906C435.589 57.738 379.852 32.966 325.491 44.492C313.496 31.0493 298.781 20.3094 282.321 12.9841C265.861 5.65886 248.032 1.91546 230.016 2.00202C174.452 2.00202 125.08 37.783 107.877 90.595C72.096 97.992 41.303 120.355 23.24 152.009C-4.628 200.176 1.737 260.729 39.066 302.016C27.541 336.594 31.497 374.44 49.904 405.749C77.6 454.089 133.337 478.86 187.87 467.334C211.954 494.514 246.703 510.169 283.173 509.997C338.737 509.997 388.109 474.215 405.312 421.403C441.094 414.006 471.886 391.643 489.777 359.99C517.817 311.822 511.453 251.268 474.123 209.982V209.81ZM434.556 122.592C445.566 141.859 449.695 164.395 445.91 186.242C445.222 185.726 443.846 185.038 442.986 184.522L341.834 126.032C339.288 124.594 336.414 123.839 333.491 123.839C330.567 123.839 327.693 124.594 325.147 126.032L206.621 194.5V144.268L304.504 87.671C350.091 61.351 408.236 77.005 434.556 122.592ZM206.621 227.012L256.509 198.112L306.396 227.012V284.642L256.509 313.542L206.621 284.642V227.012ZM229.844 35.202C252.208 35.202 273.711 42.944 290.914 57.222C290.226 57.566 288.85 58.426 287.817 58.942L186.666 117.26C181.505 120.185 178.408 125.69 178.408 131.71V268.644L134.885 243.528V130.333C134.885 77.693 177.376 35.203 230.016 35.031L229.844 35.202ZM52.14 168.697C63.322 149.429 80.697 134.635 101.684 126.894V247.14C101.684 253.16 104.781 258.494 109.942 261.59L228.296 329.885L184.601 355.173L86.89 298.748C41.475 272.428 25.82 214.283 52.14 168.696V168.697ZM78.805 389.407C67.623 370.312 63.666 347.605 67.451 325.757C68.139 326.273 69.515 326.961 70.375 327.477L171.527 385.967C174.073 387.405 176.947 388.161 179.871 388.161C182.794 388.161 185.668 387.405 188.214 385.967L306.568 317.5V367.732L208.685 424.157C163.098 450.305 104.953 434.822 78.633 389.407H78.805ZM283.345 476.797C261.153 476.797 239.478 469.056 222.447 454.777C223.495 454.233 224.528 453.66 225.544 453.057L326.696 394.74C331.856 391.816 335.125 386.31 334.953 380.29V243.527L378.476 268.643V381.665C378.476 434.305 335.813 476.968 283.345 476.968V476.796V476.797ZM461.22 343.303C450.038 362.57 432.491 377.364 411.676 384.933V264.687C411.676 258.666 408.579 253.161 403.419 250.237L284.893 181.77L328.416 156.654L426.299 213.078C471.886 239.398 487.369 297.544 461.049 343.131L461.221 343.303H461.22Z" fill="#BBBCC5"/>
</svg>
